<?xml version="1.0" standalone="no"?>
<!DOCTYPE svg PUBLIC "-//W3C//DTD SVG 20010904//EN"
 "http://www.w3.org/TR/2001/REC-SVG-20010904/DTD/svg10.dtd">
<svg version="1.0" xmlns="http://www.w3.org/2000/svg"
 width="1280.000000pt" height="1280.000000pt" viewBox="0 0 1280.000000 1280.000000"
 preserveAspectRatio="xMidYMid meet">
<metadata>
Created by potrace 1.14, written by Peter Selinger 2001-2017
</metadata>
<g transform="translate(0.000000,1280.000000) scale(0.100000,-0.100000)"
fill="#000000" stroke="none">
<path d="M5390 9970 c0 -3 -28 -6 -63 -7 -73 -1 -140 -8 -153 -15 -5 -2 -16
-4 -24 -3 -8 0 -18 -4 -22 -9 -4 -6 -11 -6 -20 1 -22 19 -25 19 -47 -1 -12
-11 -21 -16 -21 -11 0 4 -8 1 -17 -6 -14 -12 -15 -12 -9 -1 7 11 4 12 -11 3
-11 -6 -23 -7 -27 -4 -3 3 -6 1 -6 -7 0 -10 -4 -10 -17 1 -14 12 -16 12 -8 0
6 -11 4 -13 -8 -8 -10 4 -17 2 -17 -5 0 -6 -6 -5 -17 3 -11 10 -14 10 -9 2 6
-12 -5 -18 -26 -14 -5 0 -8 -3 -8 -8 0 -5 -13 -8 -29 -7 -17 1 -28 -2 -25 -6
5 -7 -21 -12 -29 -5 -2 1 -15 -6 -30 -16 -15 -9 -38 -18 -52 -19 -14 -1 -25
-5 -25 -9 0 -7 -50 -23 -62 -21 -5 1 -8 -2 -8 -8 0 -5 -9 -10 -20 -10 -11 0
-20 -4 -20 -9 0 -5 -7 -12 -16 -15 -10 -4 -13 -2 -9 7 4 6 1 5 -7 -3 -7 -8
-20 -16 -28 -18 -8 -2 -16 -7 -18 -12 -2 -5 -10 -6 -18 -3 -7 3 -17 -2 -20
-11 -3 -9 -10 -14 -14 -11 -5 3 -14 -1 -22 -8 -7 -8 -19 -12 -26 -9 -6 2 -12
-1 -12 -7 0 -6 -7 -11 -15 -11 -9 0 -18 -7 -21 -15 -4 -8 -10 -13 -14 -10 -5
3 -13 -3 -19 -12 -6 -10 -11 -15 -11 -10 0 11 -80 -44 -80 -55 0 -5 -4 -7 -9
-4 -11 7 -53 -29 -44 -38 4 -4 1 -4 -7 -1 -16 5 -52 -21 -120 -87 -21 -20 -41
-34 -44 -30 -3 3 -6 0 -6 -6 0 -6 -9 -14 -20 -17 -11 -4 -18 -10 -15 -15 3 -4
-7 -16 -22 -25 -29 -20 -84 -75 -146 -150 -23 -27 -59 -66 -79 -87 -21 -21
-38 -40 -38 -43 0 -3 0 -10 0 -16 0 -5 -4 -8 -9 -4 -5 3 -15 -10 -22 -29 -7
-19 -17 -34 -23 -33 -6 1 -10 -4 -8 -10 1 -7 -2 -13 -8 -13 -5 0 -10 -9 -10
-21 0 -11 -4 -18 -9 -15 -5 3 -16 -9 -26 -27 -42 -81 -62 -116 -72 -129 -6 -7
-12 -16 -12 -20 -4 -23 -15 -37 -25 -31 -6 3 -8 2 -3 -2 4 -5 0 -19 -9 -33
-12 -18 -12 -23 -3 -17 9 4 9 2 -1 -7 -18 -16 -45 -62 -32 -54 6 3 8 -2 5 -14
-3 -11 -9 -17 -14 -14 -8 4 -14 -25 -10 -48 0 -5 -4 -8 -10 -8 -6 0 -9 -9 -6
-20 3 -10 0 -18 -5 -17 -6 1 -12 -9 -14 -22 -3 -14 -10 -31 -17 -40 -9 -12 -9
-13 0 -7 9 5 11 2 7 -8 -3 -9 -9 -16 -13 -16 -4 0 -8 -7 -9 -15 -1 -8 -3 -22
-4 -30 -1 -8 -5 -15 -10 -15 -5 0 -6 -9 -3 -20 4 -11 2 -20 -4 -20 -6 0 -11
-11 -11 -24 0 -13 -6 -27 -12 -29 -10 -4 -10 -6 0 -6 7 -1 10 -5 7 -11 -11
-17 -36 -123 -30 -128 3 -3 -2 -16 -11 -30 -9 -13 -11 -21 -5 -18 6 4 11 3 11
-3 0 -5 -4 -12 -9 -15 -4 -3 -7 -22 -4 -42 3 -27 1 -34 -9 -28 -9 6 -9 3 1 -9
9 -12 10 -17 2 -17 -7 0 -10 -4 -6 -9 3 -5 1 -13 -5 -16 -8 -5 -8 -11 0 -20 8
-10 8 -15 0 -20 -8 -5 -8 -11 1 -21 6 -8 7 -14 2 -14 -6 0 -10 -18 -9 -40 1
-22 -1 -40 -5 -40 -4 0 -4 -13 1 -30 6 -21 5 -30 -3 -30 -7 0 -6 -4 3 -10 9
-6 11 -10 3 -10 -7 0 -10 -6 -7 -14 10 -26 9 -136 -1 -140 -5 -3 -2 -5 8 -5
14 -1 16 -5 7 -20 -7 -13 -7 -22 0 -26 7 -4 7 -12 0 -24 -5 -10 -6 -21 -3 -25
8 -8 15 -35 14 -60 0 -11 4 -27 10 -38 6 -11 6 -18 0 -18 -5 0 -3 -19 4 -44 8
-24 11 -47 8 -50 -3 -3 -1 -12 5 -19 6 -7 13 -28 14 -46 1 -18 6 -35 10 -37 4
-3 5 -11 1 -19 -3 -8 -1 -15 5 -15 6 0 8 -8 5 -19 -3 -10 0 -22 6 -25 6 -4 11
-18 11 -31 0 -13 5 -27 11 -30 6 -4 8 -13 5 -21 -3 -8 -1 -14 5 -14 6 0 7 -4
4 -10 -3 -5 -1 -10 5 -10 6 0 9 -4 6 -8 -3 -5 1 -20 9 -35 8 -15 11 -27 7 -27
-3 0 -1 -5 5 -11 6 -6 9 -18 6 -27 -4 -9 -2 -13 4 -9 6 4 13 0 17 -8 3 -8 1
-15 -5 -15 -6 0 -3 -7 5 -16 9 -8 16 -24 16 -35 0 -13 4 -18 12 -13 7 5 9 2 5
-9 -3 -8 1 -21 9 -28 8 -7 13 -18 10 -26 -3 -7 -1 -13 4 -13 8 0 37 -55 40
-78 1 -4 8 -11 16 -15 8 -5 12 -12 10 -16 -3 -4 4 -18 15 -29 11 -12 17 -22
14 -22 -7 0 48 -84 58 -88 4 -2 7 -9 7 -15 0 -7 11 -25 25 -40 14 -15 23 -27
19 -27 -4 0 3 -8 14 -19 12 -10 22 -21 22 -25 0 -4 9 -16 20 -28 10 -12 17
-26 13 -31 -3 -6 -1 -7 4 -4 6 4 16 0 23 -8 7 -8 9 -15 5 -15 -5 0 2 -8 13
-19 12 -10 22 -24 22 -30 0 -7 5 -9 10 -6 6 3 10 -1 10 -10 0 -9 3 -14 8 -12
4 2 23 -15 42 -39 19 -23 41 -43 48 -43 7 -1 10 -5 7 -11 -3 -5 -2 -10 2 -10
5 0 29 -19 54 -42 72 -67 109 -99 109 -92 0 3 14 -10 31 -28 18 -18 28 -27 24
-19 -5 9 2 7 17 -5 14 -10 23 -23 20 -28 -3 -5 0 -6 6 -2 6 3 16 0 24 -7 7 -7
29 -24 48 -37 19 -13 38 -29 42 -35 4 -5 8 -6 8 -2 0 4 15 -3 33 -16 17 -14
42 -28 55 -32 12 -3 22 -11 22 -16 0 -6 4 -8 9 -5 5 3 25 -6 46 -19 20 -14 34
-21 30 -15 -3 5 9 2 27 -8 18 -9 35 -20 36 -24 2 -5 12 -8 23 -8 10 0 19 -4
19 -10 0 -5 3 -9 8 -9 22 4 42 -2 37 -11 -3 -6 1 -7 9 -4 9 3 16 1 16 -6 0 -6
4 -9 8 -6 5 3 20 -1 35 -9 14 -7 28 -11 31 -7 3 3 6 -1 6 -8 0 -7 3 -10 6 -7
4 3 16 1 27 -4 11 -6 34 -13 51 -16 17 -3 33 -8 36 -12 5 -8 22 -11 63 -12 9
0 17 -4 17 -9 0 -5 9 -7 20 -5 14 3 20 -2 20 -13 0 -11 3 -13 8 -6 7 12 42 15
42 4 0 -5 38 -10 98 -13 6 0 12 -3 12 -7 0 -4 20 -6 44 -6 25 1 42 -3 38 -8
-3 -5 2 -7 11 -3 9 3 18 1 21 -6 3 -8 5 -8 5 2 1 10 4 11 15 2 10 -8 16 -9 21
-1 3 6 12 7 18 3 20 -12 111 -12 126 0 11 9 13 9 8 1 -4 -7 0 -15 9 -18 8 -3
12 -2 9 4 -8 12 -8 12 33 1 18 -6 30 -6 28 -2 -3 4 24 6 59 5 36 -1 63 2 60 6
-3 5 4 6 15 3 11 -3 17 -10 13 -17 -4 -6 1 -5 10 3 9 7 17 10 17 6 0 -4 6 -3
13 4 10 8 17 7 25 -1 7 -7 12 -8 12 -2 0 5 9 10 20 10 11 0 20 -5 20 -11 0 -5
4 -4 8 3 5 7 30 14 55 15 26 1 47 6 47 11 0 4 11 6 25 4 14 -3 25 -2 25 3 0 4
9 6 20 4 11 -2 20 0 20 5 0 4 11 7 25 5 14 -1 25 1 25 5 0 5 11 7 25 6 14 -2
22 1 18 6 -3 6 3 7 16 3 13 -4 21 -2 21 5 0 6 5 8 10 5 6 -4 17 -1 25 5 8 7
15 9 15 5 0 -4 6 -3 13 2 6 6 20 9 30 8 9 -2 15 1 11 6 -4 8 30 14 39 7 2 -2
11 3 20 11 10 7 17 10 17 5 0 -5 4 -4 8 1 4 6 23 16 42 23 36 14 39 15 77 27
13 4 21 11 18 15 -3 4 1 8 8 7 34 -1 48 4 41 15 -5 8 -2 9 9 5 10 -4 20 0 26
11 8 13 10 13 11 3 0 -11 4 -10 14 4 8 11 20 16 29 12 10 -4 16 -2 14 6 -1 7
6 11 15 11 10 -1 15 3 11 9 -4 6 0 8 11 4 9 -4 15 -3 12 1 -3 5 20 22 50 38
29 16 54 33 54 38 0 5 3 7 6 3 6 -6 19 2 56 38 11 11 18 14 14 8 -5 -9 -2 -11
8 -7 9 3 14 11 13 17 -1 6 3 11 10 12 7 0 23 9 35 20 13 11 25 20 28 20 3 0
22 16 44 35 21 19 43 34 48 32 5 -1 8 1 5 5 -2 5 4 16 15 26 10 9 18 14 18 10
1 -5 7 3 15 17 8 14 14 21 15 16 0 -5 40 32 89 84 50 51 87 98 84 104 -3 6 -3
8 2 4 9 -8 35 15 35 31 0 6 9 16 20 23 11 7 20 16 20 20 0 5 8 16 18 26 9 10
24 29 32 42 8 12 26 36 38 51 13 16 20 29 16 29 -4 0 3 9 16 20 13 11 20 20
16 20 -4 0 1 12 12 28 10 15 22 35 25 45 4 11 12 15 18 11 7 -4 9 -3 6 3 -8
12 20 73 33 73 5 0 7 7 4 15 -4 8 -1 15 5 15 6 0 11 4 11 10 0 5 12 35 27 67
15 32 26 61 25 66 -1 4 3 7 8 7 5 0 9 3 8 8 -1 8 9 39 23 64 5 10 9 23 9 28 0
6 9 29 19 50 13 26 15 40 8 40 -8 0 -7 4 2 9 7 5 11 13 7 19 -3 6 -1 12 5 14
5 2 12 15 14 28 4 29 13 65 15 65 1 0 3 11 6 25 2 14 7 32 10 40 3 8 8 29 9
45 2 17 6 41 10 55 4 14 8 42 9 62 0 21 4 38 7 38 3 0 5 10 4 23 -1 12 3 28 9
36 8 11 8 13 -1 7 -16 -9 -17 6 -1 22 7 7 8 12 2 12 -6 0 -11 7 -11 15 0 8 4
12 8 9 4 -2 6 14 5 36 -2 22 1 40 5 40 9 0 4 65 -7 81 -4 7 -3 9 4 5 7 -4 9
16 5 66 -3 40 -6 85 -5 101 0 15 -5 27 -10 27 -6 0 -5 7 2 15 7 8 8 15 3 15
-4 0 -8 31 -8 69 0 38 -4 67 -8 64 -5 -3 -6 9 -4 26 3 17 2 31 -3 31 -4 0 -8
10 -8 23 0 27 -5 48 -15 65 -5 7 -3 12 4 12 7 0 6 8 -5 25 -18 28 -21 39 -6
30 6 -3 7 1 4 9 -3 9 -10 16 -15 16 -5 0 -9 13 -9 29 0 16 -6 32 -12 34 -8 3
-8 6 -2 6 13 1 -6 71 -18 71 -5 0 -8 10 -8 23 0 13 -9 43 -21 66 -11 24 -21
51 -22 62 -1 10 -4 19 -8 19 -3 0 -11 12 -17 26 -7 14 -8 23 -2 19 6 -3 7 1 4
9 -3 9 -10 16 -14 16 -9 0 -25 40 -22 53 1 4 -3 7 -9 7 -5 0 -8 4 -5 9 3 5 -1
14 -9 21 -8 7 -15 21 -15 31 0 11 -4 19 -10 19 -5 0 -10 7 -10 15 0 8 -5 15
-11 15 -5 0 -8 4 -5 9 3 5 -1 14 -10 21 -8 7 -12 20 -9 29 3 8 3 12 -1 8 -9
-9 -54 65 -47 77 4 5 1 6 -5 2 -7 -4 -12 -3 -12 2 0 4 -9 18 -20 30 -12 12
-18 22 -15 22 2 0 -3 9 -13 20 -9 12 -16 24 -16 28 1 4 -7 13 -17 20 -11 7
-19 20 -19 28 0 8 -7 14 -15 14 -9 0 -12 6 -8 17 4 11 3 14 -5 9 -7 -4 -12 -2
-12 4 0 6 -20 31 -45 57 -25 25 -42 50 -38 57 3 6 3 8 -1 4 -4 -4 -32 18 -62
48 -30 30 -59 54 -65 54 -6 0 -7 5 -4 11 4 6 -2 13 -14 16 -11 3 -18 9 -15 14
3 5 -2 9 -10 9 -9 0 -16 5 -16 10 0 6 -6 10 -13 10 -8 0 -20 11 -27 25 -7 13
-17 22 -22 19 -5 -3 -12 4 -15 16 -4 16 -8 18 -14 8 -7 -10 -9 -10 -9 0 0 6
-7 12 -15 12 -8 0 -14 6 -12 13 1 6 -4 11 -10 10 -7 -2 -13 2 -13 7 0 6 -12
16 -27 23 -15 6 -37 20 -48 30 -11 9 -28 24 -38 32 -10 9 -22 13 -27 10 -6 -4
-10 -1 -10 4 0 6 -7 11 -16 11 -8 0 -12 5 -9 10 3 6 -3 10 -14 10 -12 0 -21 5
-21 11 0 5 -5 7 -10 4 -6 -3 -13 1 -16 9 -3 9 -10 13 -15 10 -5 -3 -9 0 -9 5
0 6 -3 10 -7 9 -12 -2 -46 13 -65 29 -9 8 -22 12 -27 8 -6 -3 -11 -2 -11 4 0
6 -10 15 -21 22 -17 9 -20 8 -13 -2 4 -7 -8 -2 -27 11 -19 14 -35 24 -36 22
-7 -6 -34 -1 -29 6 2 4 -5 9 -16 9 -12 1 -24 6 -27 10 -3 4 -15 10 -26 11 -11
2 -24 8 -30 13 -5 5 -19 9 -32 9 -13 0 -23 4 -23 10 0 5 -6 7 -14 4 -8 -3 -27
3 -42 13 -21 13 -26 14 -19 3 7 -12 6 -13 -7 -3 -8 7 -27 14 -42 15 -14 1 -26
5 -26 9 0 4 -7 10 -16 13 -8 3 -12 2 -9 -4 9 -15 -8 -12 -34 7 -18 12 -22 13
-16 2 8 -12 6 -12 -8 -1 -9 8 -21 11 -27 7 -5 -3 -10 -2 -10 3 0 6 -9 8 -20 5
-12 -3 -20 0 -20 6 0 7 -5 9 -12 5 -17 -11 -48 -12 -42 -2 5 7 -42 13 -73 9
-7 -1 -13 3 -13 10 0 8 -4 9 -13 0 -10 -8 -17 -7 -25 1 -7 7 -12 8 -12 4 0 -5
-7 -3 -15 4 -8 7 -15 8 -15 3 0 -5 -21 -7 -50 -3 -29 4 -54 2 -60 -4 -6 -6
-10 -6 -10 0 0 5 -40 9 -90 9 -50 0 -90 -2 -90 -5z m-131 -387 c1 15 5 16 21
7 13 -7 20 -7 20 -1 0 6 7 8 15 4 22 -8 14 -25 -13 -30 -25 -3 -70 -43 -49
-43 8 0 7 -4 -3 -10 -13 -9 -13 -10 0 -10 10 0 11 -3 4 -8 -13 -8 -2 -46 17
-58 8 -4 10 -3 5 4 -4 7 -3 12 3 12 5 0 12 -4 15 -9 4 -5 17 -8 31 -6 22 2 25
-2 26 -29 4 -152 3 -176 -6 -177 -7 0 -7 -2 0 -5 6 -2 9 -54 9 -129 -1 -70 2
-122 7 -119 5 3 9 1 9 -4 0 -5 12 -7 26 -4 20 4 25 2 19 -8 -6 -10 -4 -11 6
-4 21 13 81 15 73 2 -5 -7 -2 -8 7 -2 22 13 43 14 51 1 6 -9 8 -9 8 1 0 6 10
12 23 12 21 0 23 4 22 48 0 26 -4 53 -9 61 -6 9 -5 12 1 8 5 -3 9 13 9 39 0
24 -4 44 -9 44 -6 0 -6 5 0 13 12 15 11 197 -1 216 -6 9 -5 12 1 8 11 -7 12
102 0 120 -4 6 -3 14 3 18 6 4 8 11 5 16 -4 5 0 9 7 9 9 0 9 3 -2 10 -17 11
-14 12 85 14 42 1 64 -3 73 -14 9 -10 11 -10 6 -1 -5 10 -1 11 17 5 13 -4 32
-7 41 -6 24 1 45 -37 27 -49 -11 -7 -11 -9 -1 -9 7 0 10 -5 7 -11 -9 -13 -12
-89 -4 -89 3 0 6 -7 6 -15 0 -8 -4 -15 -9 -15 -5 0 -4 -8 1 -18 5 -10 6 -24 1
-32 -4 -7 -5 -23 0 -35 4 -12 4 -29 -1 -38 -7 -11 -6 -17 1 -17 7 0 8 -6 0
-19 -6 -13 -6 -21 0 -23 7 -2 7 -14 1 -36 -5 -17 -7 -32 -3 -32 4 0 8 -21 10
-47 1 -29 8 -51 17 -56 9 -4 13 -12 10 -17 -3 -4 15 -20 40 -34 25 -13 43 -21
41 -17 -3 5 8 8 23 7 16 -1 27 -5 24 -10 -3 -4 5 -5 17 -1 17 5 21 4 15 -5 -6
-9 -4 -11 6 -4 21 13 39 14 39 1 0 -8 3 -9 8 -1 9 14 84 15 75 1 -4 -6 -1 -7
8 -1 21 13 120 13 112 0 -4 -7 -1 -6 8 1 16 13 36 12 58 -1 9 -6 12 -5 8 1 -3
5 15 10 44 10 28 1 57 7 64 13 8 7 19 9 25 5 5 -3 10 1 10 9 0 9 4 16 10 16 5
0 17 16 26 36 19 40 27 181 11 202 -7 9 -5 11 8 6 13 -5 16 -4 11 4 -6 9 -1 9
18 0 14 -6 26 -15 26 -19 0 -4 8 -10 19 -14 10 -3 32 -17 47 -31 51 -44 58
-49 66 -47 5 2 8 -4 8 -14 0 -9 3 -14 6 -11 3 4 26 -14 50 -38 25 -24 49 -44
55 -44 5 0 9 -5 9 -10 0 -6 19 -30 43 -54 55 -57 77 -84 77 -97 0 -5 5 -7 10
-4 6 3 10 1 10 -5 0 -12 15 -32 43 -58 9 -9 17 -22 17 -29 0 -7 5 -13 10 -13
6 0 10 -9 10 -21 0 -11 5 -17 10 -14 6 3 10 -1 10 -9 0 -9 5 -16 10 -16 6 0
10 -7 10 -15 0 -8 5 -15 11 -15 5 0 7 -4 4 -10 -3 -5 -1 -10 6 -10 7 0 9 -3 6
-7 -4 -3 3 -17 15 -30 12 -13 18 -23 14 -23 -5 0 -3 -7 4 -15 6 -8 9 -19 5
-25 -3 -5 -1 -10 6 -10 10 0 10 -3 1 -12 -10 -10 -17 -10 -32 0 -12 7 -21 8
-25 2 -3 -6 -15 -15 -27 -21 -16 -9 -19 -8 -12 3 5 8 -2 7 -19 -5 -14 -9 -38
-18 -52 -19 -14 -1 -25 -5 -25 -8 0 -3 -9 -7 -20 -8 -43 -4 -50 -6 -50 -14 0
-13 -28 -9 -33 5 -2 6 -9 -8 -14 -33 -5 -25 -7 -49 -4 -55 3 -5 4 -21 3 -35
-2 -18 0 -21 6 -11 6 8 12 9 16 3 3 -6 16 -9 29 -7 26 5 52 -36 34 -54 -8 -8
-7 -11 3 -11 11 0 11 -3 2 -12 -8 -8 -9 -15 -1 -25 9 -10 8 -13 -2 -13 -11 0
-11 -2 1 -10 13 -9 13 -11 0 -20 -10 -6 -11 -10 -3 -10 9 0 10 -7 3 -26 -7
-18 -7 -23 1 -18 8 5 8 1 0 -13 -6 -11 -7 -23 -4 -27 12 -12 12 -36 0 -36 -8
0 -7 -3 2 -9 9 -6 10 -11 2 -15 -7 -5 -7 -15 -1 -31 7 -18 6 -25 -3 -25 -8 0
-7 -4 3 -10 12 -8 13 -11 1 -19 -9 -6 -10 -10 -2 -16 9 -5 9 -11 -1 -23 -8
-10 -9 -13 -1 -9 6 4 14 3 18 -3 3 -5 1 -10 -6 -10 -7 0 -10 -3 -6 -6 11 -12
112 -11 126 0 11 8 13 8 8 -1 -8 -13 39 -13 61 0 6 5 12 4 12 -2 0 -5 8 -8 18
-6 9 1 16 8 15 13 -2 7 4 9 13 5 13 -5 15 -2 7 13 -11 23 -10 45 1 63 6 9 5
12 -2 7 -12 -7 -11 32 3 53 5 9 4 12 -2 8 -13 -8 -11 52 1 72 6 9 5 12 0 8
-12 -7 -12 158 -1 169 4 4 2 13 -3 19 -11 14 -9 42 4 64 7 11 5 13 -7 8 -12
-4 -14 -2 -10 11 3 9 11 23 17 31 8 11 8 13 -2 7 -9 -6 -11 -1 -8 19 6 32 16
46 16 22 0 -8 4 -17 9 -19 5 -1 11 -14 13 -28 1 -14 9 -31 16 -38 7 -8 10 -18
7 -23 -4 -5 -1 -9 6 -9 7 0 9 -3 6 -6 -3 -4 -1 -16 6 -28 10 -19 14 -33 19
-73 1 -7 6 -13 11 -13 5 0 7 -6 4 -14 -3 -8 -3 -17 1 -20 6 -7 8 -12 18 -66 3
-19 10 -43 15 -52 5 -10 7 -18 5 -18 -3 0 -1 -12 5 -27 6 -16 12 -48 13 -73 1
-25 6 -52 11 -59 6 -10 4 -12 -6 -6 -11 7 -12 6 -3 -6 7 -8 11 -33 10 -56 -1
-24 2 -43 7 -43 5 0 4 -6 -2 -14 -9 -10 -9 -16 -1 -21 7 -5 8 -11 1 -19 -6 -7
-6 -17 -1 -26 5 -9 5 -19 -2 -27 -6 -8 -6 -13 -1 -13 5 0 10 -7 10 -15 0 -8
-5 -15 -11 -15 -6 0 -5 -5 2 -12 8 -8 9 -15 1 -25 -7 -7 -7 -13 -2 -13 5 0 9
-9 9 -20 0 -11 -3 -20 -6 -20 -10 0 -6 -55 5 -62 6 -5 6 -8 -2 -8 -6 0 -10 -9
-8 -20 2 -11 -2 -20 -8 -20 -7 0 -6 -4 3 -10 8 -5 10 -10 4 -10 -10 0 -16 -37
-16 -102 0 -16 -4 -28 -8 -28 -3 0 -7 -6 -8 -12 -3 -44 -7 -58 -17 -58 -5 0
-3 -5 5 -10 12 -8 12 -10 1 -10 -8 0 -11 -3 -8 -7 4 -3 1 -13 -6 -21 -8 -11
-8 -14 0 -9 8 5 9 0 0 -22 -6 -17 -13 -28 -16 -26 -4 2 -7 -10 -7 -27 -1 -17
-5 -33 -10 -37 -5 -3 -9 -12 -10 -18 -1 -7 -2 -22 -2 -34 -1 -11 -6 -18 -11
-14 -6 3 -8 -4 -6 -15 2 -11 -1 -20 -6 -20 -6 0 -8 -4 -4 -9 3 -5 1 -12 -5
-16 -6 -4 -8 -11 -5 -16 4 -5 -1 -12 -9 -15 -9 -3 -13 -10 -10 -15 3 -5 2 -15
-3 -21 -8 -13 -9 -18 -12 -39 0 -5 -5 -8 -10 -5 -5 3 -12 -6 -16 -21 -3 -16
-12 -31 -18 -35 -8 -5 -7 -8 3 -8 9 0 11 -3 5 -8 -10 -7 -49 -62 -50 -72 -3
-14 -41 -70 -48 -70 -5 0 -5 -5 -2 -10 3 -6 -1 -13 -9 -16 -9 -3 -16 -12 -16
-20 0 -8 -5 -14 -11 -14 -5 0 -7 -4 -4 -10 3 -5 -1 -10 -10 -10 -9 0 -13 -5
-10 -10 4 -6 -7 -24 -24 -41 -17 -17 -31 -32 -31 -35 0 -12 -35 -42 -43 -37
-6 3 -7 1 -3 -5 3 -6 0 -17 -8 -25 -8 -8 -12 -18 -8 -22 4 -4 2 -5 -4 -3 -5 2
-42 -30 -82 -70 -39 -41 -75 -71 -81 -68 -5 4 -13 1 -17 -5 -5 -8 -3 -9 6 -4
9 5 11 4 6 -4 -4 -6 -12 -9 -17 -5 -5 3 -7 10 -4 15 4 5 2 9 -3 9 -6 0 -8 10
-5 23 3 12 3 19 -2 15 -9 -8 -35 15 -35 31 0 10 -14 15 -32 12 -5 0 -8 4 -8
10 0 5 -4 7 -10 4 -5 -3 -10 -2 -10 3 0 4 -16 7 -35 6 -26 -2 -34 0 -28 9 5 9
3 9 -8 1 -18 -14 -52 -14 -61 0 -5 7 -8 7 -8 1 0 -13 -118 -16 -126 -4 -3 5
-11 6 -17 2 -19 -12 -100 -11 -116 1 -11 8 -13 8 -8 0 4 -7 -2 -11 -18 -11
-16 0 -22 4 -18 11 5 8 3 8 -8 0 -8 -6 -22 -12 -31 -13 -41 -3 -48 -5 -48 -13
0 -4 -6 -8 -13 -8 -14 0 -40 -29 -45 -51 -2 -8 -8 -16 -14 -18 -6 -2 -5 -7 3
-12 10 -6 10 -9 2 -9 -7 0 -10 -7 -6 -17 4 -11 3 -14 -6 -9 -14 9 -11 -16 4
-26 7 -5 7 -8 0 -8 -5 0 -11 -11 -11 -25 -1 -14 3 -25 8 -25 6 0 4 -7 -3 -17
-11 -13 -11 -17 -1 -21 10 -3 10 -7 1 -19 -10 -12 -10 -16 2 -24 9 -6 10 -12
4 -16 -10 -7 -12 -26 -6 -45 3 -8 4 -48 2 -69 -1 -5 -7 -7 -13 -4 -7 4 -5 0 5
-8 17 -14 17 -15 0 -21 -11 -5 -13 -10 -7 -14 30 -19 -7 -65 -37 -46 -8 5 -9
3 -4 -6 6 -10 3 -12 -13 -8 -12 4 -22 2 -22 -2 0 -5 -9 -7 -20 -5 -11 2 -20 1
-20 -3 0 -4 -9 -8 -20 -9 -11 -1 -20 4 -20 10 0 7 -4 6 -10 -3 -5 -8 -13 -15
-17 -16 -4 0 -15 -3 -23 -7 -22 -8 -50 -5 -44 5 3 4 1 8 -3 8 -5 0 -9 9 -10
20 -1 13 2 18 9 14 7 -4 8 -2 4 4 -12 19 -15 122 -3 115 6 -4 7 -1 2 7 -11 18
-12 360 -2 353 5 -3 4 4 -2 14 -6 11 -7 23 -4 27 3 3 -5 6 -18 6 -14 0 -31 6
-38 13 -10 10 -11 9 -7 -3 5 -11 -2 -16 -26 -17 -17 -1 -36 -7 -42 -13 -14
-14 -28 -13 -21 3 4 6 1 5 -7 -4 -7 -9 -19 -14 -25 -12 -7 3 -13 -1 -13 -7 0
-7 -8 -9 -19 -5 -11 3 -22 1 -26 -5 -3 -6 -11 -8 -16 -5 -5 4 -9 1 -9 -5 0 -6
-4 -9 -9 -6 -5 3 -23 -2 -41 -10 -26 -14 -31 -20 -25 -41 3 -14 2 -22 -2 -20
-5 3 -9 -3 -9 -13 0 -10 4 -16 8 -14 4 3 8 -3 8 -14 0 -18 11 -22 58 -22 23 0
25 -5 24 -53 0 -17 3 -25 10 -21 7 5 8 2 3 -7 -12 -18 -14 -69 -3 -75 5 -3 5
-11 0 -17 -12 -15 -11 -47 0 -47 5 0 6 -5 2 -12 -11 -17 -11 -58 -1 -65 4 -2
4 -10 -2 -17 -5 -6 -8 -24 -7 -39 2 -15 -2 -31 -8 -34 -18 -12 -35 -12 -42 -2
-4 6 -11 6 -19 -1 -9 -8 -15 -8 -20 0 -4 7 -12 7 -26 0 -10 -6 -19 -7 -19 -2
0 5 -10 8 -22 7 -13 -1 -31 2 -40 7 -13 6 -18 5 -18 -4 0 -8 -3 -9 -8 -3 -4 6
-25 10 -47 10 -68 0 -82 10 -79 61 2 31 -1 42 -9 38 -9 -5 -9 -4 0 6 8 9 9 20
2 38 -9 23 -8 24 8 11 14 -12 16 -12 8 0 -4 8 -9 27 -11 43 -3 21 0 27 9 21 6
-4 4 5 -6 20 -10 15 -14 33 -10 40 12 20 12 71 0 79 -9 6 -9 8 0 8 7 0 10 10
7 26 -3 14 -1 23 4 21 4 -3 8 3 8 13 0 10 -3 17 -7 14 -4 -2 -9 3 -13 11 -3 8
0 17 6 21 7 5 8 2 3 -6 -5 -9 -4 -11 4 -6 8 5 7 13 -3 28 -14 20 -11 52 4 43
4 -2 5 6 3 19 -3 12 -10 23 -16 24 -7 0 -24 3 -39 5 -16 2 -28 0 -28 -5 0 -6
-7 -8 -14 -5 -8 3 -28 0 -43 -8 -15 -8 -41 -16 -56 -19 -16 -3 -35 -10 -43
-17 -8 -6 -17 -9 -21 -6 -3 3 -19 -1 -35 -9 -23 -12 -28 -12 -22 -2 6 10 5 11
-8 1 -8 -7 -17 -11 -20 -8 -2 3 -5 -1 -6 -7 0 -7 -3 -32 -5 -55 -2 -24 0 -43
5 -43 5 0 6 -4 3 -10 -4 -6 12 -10 39 -10 37 0 46 -4 47 -17 5 -83 2 -216 -4
-220 -4 -3 -3 -11 4 -19 8 -10 9 -18 0 -27 -6 -8 -7 -17 -3 -22 4 -4 -5 0 -20
10 -16 9 -28 14 -28 10 0 -4 -12 0 -26 10 -15 9 -23 12 -20 6 5 -8 0 -8 -18 1
-14 6 -26 15 -26 20 0 5 -4 6 -10 3 -5 -3 -10 -2 -10 4 0 6 -7 8 -15 5 -8 -4
-15 -1 -15 6 0 7 -7 10 -15 6 -8 -3 -15 -1 -15 5 0 6 -4 7 -10 4 -5 -3 -10 -1
-10 4 0 6 -7 11 -15 11 -7 0 -19 8 -24 18 -7 12 -10 13 -11 3 0 -8 -10 -3 -26
15 -16 16 -22 30 -15 32 8 3 8 9 0 24 -8 15 -8 19 0 14 14 -9 14 0 1 25 -6 10
-7 19 -3 19 4 0 8 27 8 60 0 33 -3 60 -7 60 -4 0 -3 14 2 30 5 19 5 30 -1 30
-6 0 -7 6 -2 13 25 40 -10 69 -66 55 -20 -5 -43 -10 -53 -12 -9 -1 -24 -9 -34
-17 -10 -8 -15 -9 -11 -2 5 8 -2 7 -20 -2 -15 -8 -36 -15 -45 -15 -10 0 -18
-5 -18 -12 0 -6 -3 -8 -7 -5 -3 4 -13 1 -21 -6 -13 -10 -14 -9 -8 1 7 12 4 12
-15 1 -13 -7 -27 -12 -31 -11 -5 1 -8 -3 -8 -9 0 -5 -4 -7 -10 -4 -5 3 -10 1
-10 -4 0 -14 -31 11 -99 81 -91 93 -119 126 -113 132 3 3 -2 6 -12 6 -9 0 -14
4 -11 10 3 5 -3 15 -15 22 -11 7 -20 17 -20 23 0 5 -11 23 -25 39 -13 16 -27
37 -30 47 -4 11 -11 16 -17 13 -6 -4 -8 -3 -5 3 4 5 -3 20 -14 31 -11 12 -17
22 -14 22 3 0 -3 10 -15 22 -11 12 -20 29 -20 38 0 9 -10 27 -22 40 -13 14
-21 26 -19 28 5 5 -21 62 -29 62 -3 0 -7 6 -7 13 0 6 -9 32 -21 57 -11 25 -22
54 -24 65 -1 11 -6 22 -10 25 -4 3 -13 28 -20 55 -7 28 -17 53 -23 57 -5 4 -6
8 -1 8 5 0 4 6 -1 13 -6 6 -9 20 -8 29 2 10 -1 20 -6 24 -5 3 -7 10 -3 15 3 5
0 16 -6 24 -7 8 -9 15 -5 15 4 0 2 7 -5 15 -10 12 -10 15 1 15 12 0 12 2 1 9
-8 4 -13 17 -12 27 1 11 1 21 0 24 -4 13 -11 48 -14 76 -1 16 -5 34 -8 40 -3
5 -4 19 -3 32 1 12 -3 22 -9 22 -7 0 -7 3 -1 8 13 9 15 42 3 42 -6 0 -5 6 2
15 7 8 8 15 3 15 -5 0 -9 10 -7 23 1 12 3 22 4 22 1 0 3 10 4 23 2 12 -1 22
-5 22 -10 0 -6 34 6 42 6 5 4 8 -5 8 -13 0 -13 1 0 10 12 8 12 10 1 10 -11 0
-11 3 -1 15 10 12 10 18 0 30 -7 8 -8 15 -3 15 5 0 10 7 10 15 0 8 -4 15 -9
15 -5 0 -4 9 2 21 7 11 9 23 6 27 -3 3 1 16 10 30 10 15 11 21 3 17 -9 -6 -10
-3 -4 11 4 10 8 31 9 47 0 15 4 27 8 27 3 0 4 9 1 21 -4 12 0 25 8 30 9 5 9 9
2 9 -6 0 -9 9 -6 20 3 11 10 17 16 13 6 -4 8 0 4 9 -3 9 0 21 6 28 9 10 9 11
-1 5 -11 -6 -12 -3 -3 14 7 11 8 21 4 21 -4 0 -1 5 7 10 11 7 11 10 2 10 -7 0
-10 5 -7 10 4 6 10 8 14 5 5 -2 7 7 5 20 -1 14 3 25 9 25 5 0 7 3 4 7 -4 3 1
15 10 26 10 11 13 17 6 14 -6 -4 -14 -3 -18 3 -3 5 0 10 8 10 8 0 18 7 21 16
3 9 2 12 -5 8 -6 -3 -5 3 3 15 7 12 16 21 20 21 4 0 4 8 1 17 -6 15 -5 16 9 3
11 -10 13 -19 7 -27 -11 -13 5 -28 20 -19 5 4 11 0 14 -6 3 -10 7 -10 20 1 11
9 17 10 17 2 0 -6 6 -11 13 -11 9 0 12 -23 11 -82 0 -46 5 -89 10 -97 7 -10 7
-13 1 -9 -7 4 -10 -38 -10 -127 0 -73 3 -131 8 -128 4 2 7 0 7 -4 0 -5 52 -8
117 -8 130 0 119 -7 124 85 2 25 -1 51 -4 57 -4 7 -2 15 4 19 8 4 7 9 -2 15
-12 7 -12 9 0 9 11 0 11 3 1 15 -7 9 -8 15 -2 15 6 0 7 13 2 35 -5 22 -4 35 2
35 6 0 6 6 -1 14 -9 11 -9 16 0 21 8 6 7 10 -2 16 -8 5 -9 9 -3 9 7 0 8 17 4
50 -4 33 -3 50 4 50 6 0 4 5 -4 11 -12 9 -13 12 -1 16 11 5 11 7 0 14 -10 6
-10 9 -2 9 9 0 10 7 3 25 -5 14 -6 25 -1 25 11 0 -5 110 -18 123 -7 7 -11 7
-11 1 0 -13 -53 -12 -62 1 -5 6 -8 5 -8 -2 0 -7 -7 -13 -16 -13 -8 0 -12 -4
-9 -10 3 -6 -1 -7 -9 -4 -8 3 -29 -1 -47 -10 -17 -9 -35 -13 -40 -10 -5 3 -9
0 -9 -6 0 -6 -4 -9 -9 -6 -5 3 -25 -1 -45 -9 -44 -19 -45 -19 -41 3 2 9 4 21
4 25 1 5 6 5 13 1 6 -4 8 -3 5 2 -3 6 4 30 15 54 12 25 22 49 22 53 1 4 8 12
16 17 8 5 11 10 5 10 -5 0 -2 5 8 11 9 6 15 14 12 20 -4 5 -1 9 5 9 6 0 8 5 5
10 -3 6 -1 10 5 10 6 0 9 4 6 9 -3 5 1 12 10 15 9 4 14 13 10 21 -3 9 0 15 9
15 8 0 15 5 15 11 0 6 10 20 23 31 12 11 15 16 7 12 -16 -8 -10 0 48 64 17 17
28 32 25 32 -4 0 11 17 134 142 25 26 50 45 54 42 5 -3 9 0 9 6 0 15 25 40 40
40 6 0 8 5 4 11 -5 8 -2 9 11 2 10 -6 19 -25 21 -46 4 -52 55 -124 76 -111 5
3 8 -1 8 -9 0 -9 10 -15 23 -15 280 -6 367 -6 368 3 0 6 2 6 5 -1 6 -13 97 -8
139 8 34 13 92 68 73 69 -10 0 -11 2 0 6 6 2 10 9 6 14 -3 5 0 9 7 9 7 0 10 3
6 6 -3 3 -2 16 3 29 5 14 5 26 -2 33 -6 6 -7 16 -2 24 12 18 12 31 1 46 -6 8
-5 12 3 12 10 0 10 3 0 15 -10 12 -10 15 1 16 11 0 11 2 1 6 -10 4 -10 8 -1
19 8 10 8 14 0 14 -13 0 -10 22 4 32 6 5 5 8 -3 8 -10 0 -10 5 -2 20 6 11 7
20 2 20 -5 0 -9 7 -9 15 0 8 5 15 10 15 5 0 4 7 -3 15 -10 12 -10 15 1 16 11
0 11 2 1 6 -10 4 -10 8 0 21 10 12 10 14 0 8 -15 -9 -12 19 7 53 10 19 15 21
22 10 5 -8 9 -9 9 -3 0 6 11 16 25 22 16 8 25 8 25 1 0 -6 6 -6 18 -1 9 5 27
8 40 7 12 -1 22 3 22 8 0 5 7 7 15 3 8 -3 15 0 15 7 0 8 3 8 9 -1 7 -12 11
-11 22 1 12 13 15 13 21 -2 6 -14 7 -14 7 2z m909 -96 c12 -1 22 -5 22 -10 0
-4 5 -5 10 -2 6 3 10 1 10 -6 0 -8 5 -7 17 2 11 9 14 10 10 2 -5 -8 1 -15 18
-19 14 -3 25 -10 25 -15 0 -5 9 -9 21 -9 11 0 17 -4 14 -10 -3 -5 2 -10 12
-11 12 0 14 -2 4 -6 -11 -5 -11 -7 0 -14 10 -6 10 -9 2 -9 -7 0 -10 -7 -7 -15
4 -9 0 -15 -7 -15 -12 0 -12 -2 -1 -9 8 -4 14 -12 14 -16 0 -4 -6 -12 -14 -16
-7 -5 -8 -9 -2 -9 13 0 14 -53 0 -62 -8 -5 -7 -8 1 -8 14 0 13 -77 -1 -99 -6
-10 -5 -12 2 -7 8 5 10 2 6 -8 -3 -9 -10 -16 -16 -16 -5 0 -6 -4 -3 -10 7 -11
7 -11 -53 -13 -23 -1 -42 1 -42 6 0 4 -5 7 -11 7 -5 0 -8 -4 -5 -8 3 -5 -1 -9
-9 -9 -8 0 -15 5 -15 10 0 5 -7 4 -15 -3 -11 -9 -15 -9 -15 -1 0 7 -4 10 -9 7
-11 -7 -23 22 -15 35 3 5 -1 9 -8 9 -10 0 -10 2 -1 8 8 5 9 13 3 22 -5 8 -5
21 1 32 5 10 6 18 2 18 -10 0 -9 73 1 89 4 6 4 11 -1 11 -4 0 -8 22 -8 50 0
27 2 50 5 50 3 0 4 21 3 46 -1 39 1 44 15 38 10 -4 27 -7 40 -7z m-1427 -54
c12 -15 12 -16 -1 -8 -13 8 -13 7 -1 -8 7 -9 10 -17 6 -17 -4 0 -1 -8 6 -17
10 -11 10 -14 2 -9 -7 4 -13 2 -13 -3 0 -6 6 -11 13 -11 8 0 8 -3 2 -8 -14 -9
-16 -74 -2 -65 6 4 7 1 2 -6 -9 -16 -10 -104 -1 -119 4 -7 2 -12 -4 -12 -6 0
-8 -11 -6 -25 5 -30 -32 -64 -46 -42 -6 9 -8 8 -8 -3 0 -13 -1 -13 -10 0 -5 8
-10 10 -10 5 0 -13 -63 -13 -72 0 -5 6 -8 6 -8 -2 0 -16 -39 -4 -49 16 -5 9
-8 36 -7 61 1 25 -1 53 -6 62 -4 9 -4 19 1 22 4 3 6 24 4 46 -3 27 0 40 8 40
7 0 9 3 6 7 -8 7 47 47 81 57 12 4 22 12 22 17 0 6 4 8 9 4 5 -3 13 0 16 6 4
5 13 8 20 5 7 -2 16 2 19 10 7 18 11 18 27 -3z m1727 -3224 c22 -2 31 -8 28
-16 -3 -7 -1 -13 5 -13 6 0 9 -7 5 -15 -3 -8 0 -15 7 -16 7 0 8 -2 1 -5 -11
-5 -10 -55 1 -75 5 -7 4 -10 -3 -5 -7 4 -10 -5 -8 -26 4 -40 -3 -60 -16 -52
-5 3 -16 -2 -23 -12 -8 -11 -15 -15 -15 -11 0 5 -7 2 -15 -5 -32 -29 -43 -37
-47 -32 -3 2 -23 -5 -46 -16 -51 -25 -52 -25 -47 0 2 11 -1 22 -6 25 -5 4 -6
11 -3 17 12 19 13 68 1 61 -6 -4 -7 -1 -2 6 4 7 7 43 7 79 0 37 5 73 12 81 9
12 8 13 -4 6 -13 -8 -13 -6 -2 7 18 23 58 26 170 17z"/>
<path d="M4446 8539 c5 -9 2 -10 -9 -6 -9 3 -23 -1 -32 -9 -9 -9 -15 -11 -15
-4 0 6 -5 8 -10 5 -6 -4 -8 -11 -5 -16 4 -5 -1 -9 -10 -9 -9 0 -13 -4 -10 -10
3 -5 2 -10 -3 -10 -10 0 -23 -47 -26 -90 -1 -14 -5 -30 -9 -37 -4 -6 -3 -14 1
-17 10 -6 9 -36 -2 -54 -4 -6 -3 -12 2 -12 10 0 9 -50 -1 -66 -3 -6 -3 -14 0
-18 11 -11 10 -46 -1 -46 -7 0 -8 -3 -1 -8 6 -4 11 -16 11 -27 0 -11 -5 -23
-11 -27 -7 -5 -7 -8 0 -8 6 0 11 -19 11 -43 1 -49 30 -117 51 -117 8 0 11 -4
8 -10 -6 -10 7 -14 33 -11 6 1 12 -2 12 -7 0 -5 47 -8 105 -8 64 1 105 -3 105
-9 0 -7 3 -7 8 0 4 6 68 10 157 9 l150 0 38 39 c20 22 38 46 38 53 1 8 2 22 3
32 1 9 5 23 10 31 7 11 6 12 -5 6 -11 -7 -12 -6 -3 6 16 21 17 89 2 89 -9 0
-10 2 -2 8 16 9 15 232 0 251 -8 11 -8 13 2 7 6 -4 12 -2 12 3 0 6 -5 11 -11
11 -5 0 -8 4 -4 9 3 5 1 12 -4 16 -6 3 -8 12 -4 20 3 8 0 15 -6 15 -6 0 -11 7
-11 16 0 8 -4 12 -10 9 -5 -3 -10 1 -10 10 0 9 -4 13 -10 10 -5 -3 -10 -1 -10
5 0 6 -4 8 -10 5 -5 -3 -10 -1 -10 5 0 6 -4 9 -8 6 -4 -2 -14 -1 -22 4 -9 5
-20 4 -28 -2 -10 -9 -16 -9 -21 1 -7 10 -13 10 -30 2 -15 -8 -21 -9 -21 -1 0
6 -5 8 -11 5 -17 -11 -59 -13 -59 -2 0 5 -8 3 -17 -4 -15 -12 -16 -12 -8 1 7
12 6 13 -6 3 -9 -7 -20 -8 -29 -3 -8 5 -19 6 -25 2 -16 -10 -35 -11 -35 -1 0
5 -10 5 -24 -1 -15 -5 -27 -5 -34 2 -6 6 -12 6 -16 -1 -4 -6 -15 -7 -30 -1
-16 6 -27 5 -35 -3 -8 -8 -14 -8 -19 -2 -10 15 -35 18 -26 4z m188 -111 c3 5
33 8 66 7 49 -3 65 -8 80 -26 14 -15 17 -26 10 -34 -5 -6 -7 -15 -4 -18 11
-10 10 -117 -1 -118 -7 0 -7 -2 0 -5 6 -2 9 -37 8 -81 -3 -123 -6 -149 -20
-162 -7 -6 -13 -9 -13 -6 0 3 -6 3 -12 -1 -18 -11 -48 -12 -48 -2 0 5 -8 4
-18 -1 -11 -6 -24 -6 -32 -1 -9 5 -19 5 -27 -2 -9 -7 -13 -7 -13 1 0 6 -7 11
-15 11 -8 0 -14 3 -14 8 1 4 0 9 -1 12 -7 19 -3 176 5 183 7 5 7 9 0 15 -12 8
-13 161 -1 180 4 7 6 16 3 19 -11 10 18 31 30 22 6 -6 14 -6 17 -1z"/>
<path d="M5389 8528 c-12 -13 -19 -16 -15 -8 5 9 2 9 -7 -2 -8 -10 -16 -15
-19 -12 -7 6 -38 -59 -38 -81 0 -9 -4 -14 -8 -11 -5 3 -9 -1 -9 -9 0 -8 4 -15
9 -15 5 0 4 -9 -2 -20 -8 -15 -8 -20 2 -20 8 0 9 -3 3 -8 -14 -10 -17 -32 -4
-32 5 0 7 -5 4 -10 -10 -15 -12 -110 -3 -110 4 0 3 -11 -2 -25 -6 -17 -6 -25
1 -25 6 0 7 -5 3 -12 -10 -15 -11 -78 -1 -78 4 0 3 -9 -3 -20 -6 -11 -7 -20
-2 -20 5 0 9 -6 10 -12 2 -32 10 -49 29 -72 12 -13 20 -26 18 -28 -2 -2 8 -5
22 -6 14 -1 31 -6 37 -10 13 -10 382 -9 392 1 4 4 13 2 21 -4 10 -9 13 -8 13
2 0 9 3 10 8 4 11 -16 33 -17 50 -3 11 9 14 9 9 1 -5 -8 1 -8 19 2 15 8 32 11
37 8 6 -3 7 -1 4 4 -7 11 16 37 24 28 3 -2 6 4 7 13 9 78 16 108 26 114 8 6 7
8 -2 8 -9 0 -11 14 -8 52 3 28 1 57 -5 64 -6 7 -6 15 -1 18 5 3 7 24 5 47 -4
28 -1 44 8 50 8 5 9 9 3 9 -7 0 -11 20 -11 48 -1 72 -6 112 -16 112 -5 0 -7 7
-3 15 3 8 2 14 -2 12 -4 -1 -21 10 -37 25 -16 15 -32 25 -36 22 -4 -2 -19 0
-34 6 -19 7 -24 7 -19 -1 4 -8 -1 -9 -17 -3 -25 8 -27 8 -72 1 -15 -2 -30 0
-33 4 -3 5 -15 4 -26 -2 -16 -9 -23 -8 -29 2 -6 10 -9 10 -9 2 0 -9 -7 -10
-24 -3 -17 6 -26 5 -30 -3 -5 -9 -7 -9 -12 1 -5 10 -9 10 -22 0 -12 -10 -14
-10 -8 0 4 6 3 12 -3 12 -5 0 -12 -6 -14 -12 -4 -10 -8 -9 -16 2 -10 13 -11
13 -11 0 0 -13 -1 -13 -10 0 -9 13 -10 13 -10 0 0 -13 -1 -13 -10 0 -9 13 -10
13 -10 0 0 -12 -2 -13 -9 -1 -7 11 -9 11 -14 0 -4 -10 -6 -10 -6 -2 -1 9 -8
10 -27 3 -32 -13 -37 -12 -29 0 11 18 -4 11 -26 -12z m252 -88 c0 8 3 10 5 4
2 -6 19 -9 37 -8 43 4 82 -16 82 -41 0 -11 5 -23 10 -27 6 -5 5 -8 -4 -8 -11
0 -11 -3 -1 -15 7 -8 8 -15 3 -15 -5 0 -8 -14 -5 -30 2 -17 -2 -38 -9 -47 -11
-14 -11 -15 -1 -9 11 6 13 1 11 -20 -2 -16 0 -35 4 -42 5 -7 3 -12 -3 -12 -8
0 -7 -6 1 -22 10 -18 9 -20 -6 -14 -15 5 -16 4 -6 -8 7 -8 11 -23 9 -33 -1
-10 1 -24 5 -30 5 -7 4 -13 -1 -13 -5 0 -8 -11 -7 -25 2 -14 -1 -25 -6 -25 -6
0 -8 -4 -5 -8 3 -5 -8 -8 -24 -7 -16 1 -27 -2 -24 -6 2 -4 -5 -7 -16 -6 -11 1
-20 6 -20 12 0 5 -4 4 -9 -3 -4 -8 -12 -14 -16 -14 -4 0 -12 6 -16 14 -5 7 -9
8 -9 2 0 -13 -36 -12 -50 2 -16 16 -29 70 -20 84 5 7 4 24 -1 37 -6 15 -5 23
2 23 8 0 7 6 -2 16 -10 13 -10 17 2 25 12 7 12 9 -1 9 -10 0 -11 3 -4 8 7 4 8
15 4 27 -4 11 -4 32 1 47 5 18 3 29 -4 32 -8 3 -7 8 3 15 12 8 12 11 1 11 -11
0 -11 3 -1 15 7 9 8 15 2 15 -7 0 -7 13 0 40 8 32 15 40 34 40 12 0 26 5 30
11 4 8 9 7 15 -2 7 -12 9 -11 10 1z"/>
<path d="M6586 8543 c-4 -4 -20 -8 -35 -8 -16 0 -37 -7 -47 -15 -16 -14 -17
-13 -10 4 7 19 6 19 -12 3 -18 -16 -48 -27 -79 -29 -7 -1 -13 -5 -13 -9 0 -4
-9 -6 -20 -4 -11 2 -20 -1 -20 -7 0 -5 -7 -8 -15 -4 -8 3 -15 0 -15 -6 0 -7
-6 -6 -16 2 -12 11 -15 11 -12 -1 2 -8 -3 -13 -9 -11 -11 2 -19 -32 -14 -61 1
-4 3 -16 4 -27 4 -28 12 -32 54 -34 27 -1 38 -6 38 -16 0 -8 5 -18 10 -22 7
-5 7 -8 0 -8 -11 0 -12 -106 -2 -117 4 -3 2 -12 -4 -20 -9 -10 -8 -13 2 -13 9
0 10 -3 4 -8 -5 -4 -10 -47 -10 -97 0 -49 5 -93 10 -97 6 -5 5 -8 -3 -8 -9 0
-10 -5 -4 -17 5 -10 7 -25 5 -33 -4 -12 -3 -12 5 -1 5 7 12 9 15 4 4 -6 151
-9 213 -4 6 1 11 16 11 34 -1 18 2 40 6 49 3 10 2 20 -2 22 -9 6 -7 49 3 65 4
5 3 12 -2 15 -9 6 -9 67 1 83 4 6 3 14 -3 18 -5 3 -10 11 -10 16 0 6 4 7 10 4
6 -4 7 2 1 18 -6 16 -6 28 2 36 8 8 8 11 -1 11 -14 0 -12 21 3 32 6 5 6 8 -2
8 -12 0 -12 24 0 36 4 4 2 13 -4 21 -9 10 -8 13 2 13 9 0 10 3 4 8 -13 9 -15
103 -2 95 5 -3 4 3 -2 14 -7 14 -7 24 2 33 9 10 9 11 0 6 -8 -4 -13 -1 -13 8
0 17 -14 28 -24 19z"/>
<path d="M4017 7434 c-3 -3 -23 -8 -44 -10 -70 -7 -78 -9 -94 -26 -9 -10 -19
-15 -23 -11 -3 3 -6 -1 -6 -10 0 -9 -5 -17 -11 -17 -5 0 -7 -4 -4 -10 3 -5 1
-10 -5 -10 -6 0 -8 -5 -5 -10 4 -6 1 -17 -5 -25 -10 -12 -10 -15 1 -15 10 0
10 -3 3 -8 -6 -4 -10 -18 -9 -32 1 -14 -2 -30 -7 -37 -5 -7 -5 -14 1 -17 5 -4
8 -20 6 -36 -2 -16 0 -32 6 -35 5 -4 6 -12 2 -18 -11 -16 -11 -231 0 -238 4
-3 9 -15 10 -27 0 -11 4 -19 8 -16 4 2 10 -5 14 -16 3 -11 13 -20 21 -20 8 0
13 -3 11 -7 -3 -5 6 -9 20 -10 14 0 29 -7 34 -15 5 -7 9 -8 9 -2 0 6 7 11 15
11 8 0 15 -4 15 -8 0 -5 11 -4 25 1 17 7 25 6 25 -1 0 -8 5 -7 15 1 10 8 15 9
15 1 0 -7 8 -8 25 -1 17 7 25 6 25 -1 0 -8 5 -7 15 1 11 9 15 9 15 1 0 -8 5
-9 19 -1 14 7 22 7 27 -1 4 -8 9 -7 15 2 7 12 9 12 9 0 0 -11 3 -11 15 -1 12
10 15 10 15 0 0 -10 3 -10 15 0 12 10 15 10 15 0 0 -9 4 -9 17 1 14 12 16 12
8 0 -6 -11 -5 -12 6 -5 20 12 38 14 45 3 3 -5 10 -9 15 -9 6 0 8 4 5 8 -3 5 1
9 9 9 8 0 15 -5 15 -11 0 -6 5 -5 12 2 7 7 20 12 30 12 10 0 18 5 18 11 0 5 5
7 10 4 6 -3 10 -2 10 4 0 5 9 13 21 16 12 4 18 12 15 21 -3 8 -1 14 5 14 6 0
7 5 4 10 -3 6 -2 10 4 10 5 0 8 9 6 20 -2 11 0 22 4 25 5 2 6 21 4 41 -2 24 1
40 9 45 7 5 8 9 2 9 -6 0 -10 31 -10 85 1 51 -3 85 -9 85 -5 0 -3 5 5 10 13 9
13 11 0 20 -9 6 -10 10 -3 10 10 0 10 53 -2 105 -8 40 -42 85 -63 85 -7 0 -11
4 -8 8 3 5 -12 8 -34 8 -21 -1 -36 2 -34 6 2 4 -70 6 -161 5 -104 -1 -165 2
-165 8 0 6 -5 3 -10 -5 -8 -12 -12 -12 -18 -2 -5 7 -11 9 -15 6z m113 -116 c0
-8 3 -9 8 -3 10 14 32 17 32 5 0 -6 9 -6 26 0 18 7 23 7 18 -1 -5 -8 -2 -9 11
-2 13 8 23 6 36 -5 10 -9 16 -19 13 -24 -3 -5 -2 -14 3 -21 11 -14 11 -27 0
-44 -5 -7 -4 -13 1 -13 10 0 9 -30 -2 -48 -4 -7 -2 -12 5 -12 9 0 9 -4 -1 -15
-6 -8 -8 -20 -4 -27 10 -16 13 -48 4 -48 -9 0 -6 -32 4 -49 5 -8 4 -16 -4 -21
-9 -5 -9 -9 -1 -14 6 -4 8 -13 4 -19 -4 -6 -6 -24 -5 -39 1 -15 -2 -28 -8 -28
-5 0 -10 -8 -10 -17 0 -15 -2 -16 -10 -3 -5 8 -10 10 -10 4 0 -11 -147 -11
-158 1 -9 9 -19 135 -10 135 3 0 3 13 -2 29 -6 22 -4 33 6 42 9 7 11 16 5 23
-11 13 -20 126 -11 126 4 0 4 14 2 31 -4 25 1 36 19 50 28 22 39 24 39 7z"/>
<path d="M5817 7434 c-3 -3 -52 -8 -109 -10 -125 -5 -138 -6 -138 -16 0 -4 -7
-8 -16 -8 -8 0 -12 -5 -9 -10 3 -6 -1 -13 -9 -16 -9 -3 -16 -13 -16 -21 0 -9
-5 -11 -12 -7 -9 5 -9 2 1 -9 9 -12 10 -17 2 -17 -7 0 -10 -4 -6 -9 3 -5 2
-12 -3 -15 -4 -2 -7 -27 -6 -55 1 -31 -2 -48 -8 -45 -6 4 -7 0 -1 -12 12 -23
11 -214 -1 -233 -6 -10 -5 -12 2 -7 16 10 15 -17 0 -33 -7 -7 -8 -12 -3 -11
21 5 25 -1 15 -20 -8 -15 -8 -20 2 -18 6 2 12 -4 13 -13 0 -8 8 -23 18 -33 9
-10 17 -22 17 -27 0 -6 5 -7 10 -4 6 3 10 2 10 -2 0 -5 10 -9 22 -10 11 -1 24
-6 27 -10 8 -11 35 -10 43 2 5 6 8 6 8 -1 0 -12 29 -12 48 0 6 4 12 2 12 -3 0
-13 22 -10 32 4 5 6 8 6 8 -2 0 -12 17 -12 37 0 6 4 15 3 18 -3 5 -8 11 -7 21
1 13 11 18 6 15 -16 -1 -5 5 -2 13 8 9 12 16 14 21 8 4 -8 12 -8 26 -1 11 7
19 7 19 1 0 -10 19 -9 38 2 6 5 12 4 12 -1 0 -10 30 -9 48 2 6 4 12 3 12 -1 0
-5 9 -9 20 -9 11 0 20 4 20 8 0 4 10 8 21 8 12 0 28 8 36 18 10 11 12 12 8 2
-6 -13 6 0 43 45 5 6 7 16 4 23 -2 6 1 12 6 12 6 0 8 9 5 20 -3 11 0 20 6 20
8 0 9 5 2 18 -7 13 -6 23 2 32 10 10 9 11 -3 5 -13 -8 -13 -7 -1 8 11 14 11
17 0 17 -11 0 -11 2 1 10 9 6 10 10 3 10 -13 0 -12 38 1 59 5 7 4 16 -1 20
-11 7 -12 52 -1 45 4 -3 8 0 8 5 0 6 -4 11 -9 11 -10 0 -9 19 2 37 4 6 3 14
-3 18 -5 3 -10 11 -10 16 0 6 4 8 8 5 10 -6 8 21 -2 46 -4 9 -5 21 -2 27 4 5
2 12 -4 16 -6 4 -8 10 -5 15 3 5 -3 13 -12 19 -10 6 -14 11 -8 11 5 0 -1 7
-13 16 -12 8 -19 20 -16 26 4 6 2 8 -4 4 -6 -3 -13 -2 -17 3 -3 5 -14 8 -25 6
-11 -2 -20 0 -20 5 0 5 -41 8 -90 7 -50 -1 -90 2 -90 6 0 5 -6 5 -12 1 -16
-10 -61 -11 -69 -1 -3 4 -8 5 -12 1z m-3 -115 c-4 -8 0 -8 15 0 16 9 21 9 21
-1 0 -8 3 -9 8 -3 9 13 42 16 42 3 0 -5 5 -6 11 -2 6 3 22 1 35 -6 19 -11 21
-16 13 -33 -8 -14 -8 -18 0 -13 6 4 11 3 11 -3 0 -5 -4 -12 -10 -16 -5 -3 -7
-12 -4 -20 4 -8 11 -12 18 -8 8 5 8 3 0 -8 -6 -8 -10 -24 -8 -36 2 -14 -1 -23
-9 -23 -8 0 -8 -3 -1 -8 6 -4 10 -20 10 -37 0 -16 -4 -33 -10 -37 -8 -5 -8 -8
0 -8 6 0 12 -11 12 -25 0 -14 -5 -22 -11 -18 -6 4 -7 1 -1 -8 12 -19 13 -100
1 -92 -5 3 -4 -5 3 -17 7 -12 7 -20 2 -16 -6 3 -18 -1 -26 -10 -13 -13 -20
-14 -31 -4 -8 7 -15 8 -15 3 0 -14 -100 -8 -110 6 -4 7 -11 11 -16 9 -5 -1
-12 16 -15 40 -3 23 -2 42 2 42 4 0 4 14 -1 30 -5 17 -6 30 -2 30 9 0 7 63 -2
78 -4 7 -1 12 6 12 9 0 9 3 -2 10 -8 5 -10 10 -4 10 8 0 9 11 4 35 -4 19 -4
35 0 35 5 0 6 9 3 20 -7 28 6 92 17 85 6 -3 18 -1 27 4 23 13 26 13 17 0z"/>
<path d="M6991 7435 c-1 -6 -72 -9 -196 -9 -107 1 -193 -2 -190 -6 3 -5 -4 -6
-15 -3 -11 3 -27 0 -35 -7 -8 -7 -15 -9 -15 -6 0 4 -13 -6 -28 -21 -16 -15
-27 -32 -24 -36 2 -4 -1 -13 -6 -20 -5 -7 -9 -27 -8 -45 0 -17 -1 -32 -4 -32
-6 0 -2 -130 5 -147 2 -7 0 -13 -6 -13 -6 0 -8 -4 -4 -9 3 -5 6 -54 7 -108 0
-54 4 -105 8 -113 4 -8 13 -27 20 -42 7 -15 16 -25 20 -23 5 3 10 -2 14 -10 3
-8 14 -15 25 -15 11 0 23 -5 26 -10 5 -8 11 -7 21 1 8 6 14 7 14 2 0 -13 73
-11 82 2 5 6 8 6 8 -2 0 -6 9 -9 22 -5 16 4 19 2 13 -8 -6 -9 -4 -11 6 -5 23
15 72 16 81 3 6 -10 8 -10 8 0 0 7 5 10 10 7 6 -4 17 -2 25 5 8 7 15 7 19 1 7
-11 25 -9 45 3 10 6 12 5 7 -3 -6 -9 0 -10 20 -5 21 6 25 4 19 -7 -7 -11 -6
-12 6 -4 8 6 29 10 47 9 22 -2 30 1 25 9 -4 7 1 6 10 -2 11 -9 17 -10 17 -2 0
6 6 11 13 11 6 0 25 11 41 25 16 14 26 25 21 25 -4 0 -1 7 6 16 19 23 19 28
18 254 -1 243 -1 250 -11 250 -4 0 -8 6 -8 13 0 7 -9 19 -19 27 -11 7 -17 18
-14 23 3 6 1 7 -5 3 -6 -3 -13 -2 -17 4 -4 6 -11 8 -16 5 -5 -4 -9 -1 -9 6 0
8 -4 8 -15 -1 -12 -10 -15 -10 -15 0 0 7 -7 10 -15 6 -8 -3 -15 0 -15 6 0 7
-4 7 -14 -1 -11 -9 -15 -9 -19 1 -3 7 -6 9 -6 3z m-182 -115 c10 5 22 6 26 2
3 -4 16 -7 28 -8 59 -3 68 -5 62 -14 -3 -5 -1 -10 5 -10 6 0 8 -4 5 -10 -3 -5
-3 -10 2 -10 4 0 7 -17 6 -37 -1 -21 -2 -38 -3 -38 -1 0 -3 -10 -4 -22 -2 -13
1 -23 6 -23 9 0 4 -42 -6 -59 -4 -5 -2 -12 4 -16 5 -3 10 -11 10 -16 0 -6 -5
-7 -11 -3 -8 5 -9 2 -1 -12 7 -12 7 -25 1 -36 -6 -12 -6 -18 0 -18 5 0 9 -9 8
-20 -1 -11 -4 -20 -8 -20 -10 0 -5 -34 6 -42 6 -5 5 -8 -2 -8 -7 0 -13 -6 -13
-14 0 -9 -7 -13 -20 -11 -11 2 -20 1 -20 -3 0 -4 -27 -7 -60 -7 -33 0 -60 3
-60 7 0 4 -6 5 -14 2 -9 -3 -17 3 -21 16 -11 34 -12 159 -1 153 5 -4 6 0 0 8
-11 18 -12 78 -2 101 6 11 2 20 -9 27 -12 7 -13 10 -4 11 7 0 11 6 8 15 -4 8
-2 17 4 21 7 4 7 10 0 18 -6 7 -6 18 -1 25 4 8 6 21 2 29 -4 12 0 14 17 9 15
-4 24 0 28 11 4 10 8 12 11 4 2 -8 9 -9 21 -2z"/>
<path d="M5070 7416 c-5 -5 -10 -6 -10 -2 0 5 -7 3 -15 -4 -8 -7 -15 -9 -15
-4 0 5 -5 2 -10 -6 -9 -13 -10 -13 -10 0 0 12 -2 13 -9 1 -5 -7 -19 -15 -32
-16 -39 -4 -40 -5 -35 -13 3 -5 -10 -8 -29 -7 -19 1 -32 -2 -29 -6 3 -5 -7 -9
-21 -9 -15 0 -24 -4 -20 -10 3 -5 2 -10 -4 -10 -5 0 -9 -22 -8 -50 2 -52 2
-52 60 -53 17 0 27 -6 28 -16 1 -9 2 -36 3 -61 1 -25 5 -51 10 -59 6 -9 5 -12
-1 -8 -7 5 -10 -19 -8 -68 1 -49 -2 -75 -9 -75 -7 0 -8 -3 -1 -8 6 -4 11 -16
11 -27 0 -11 -5 -23 -11 -27 -6 -5 -5 -8 3 -8 10 0 12 -9 7 -31 -6 -24 -4 -30
5 -24 9 6 11 4 5 -6 -12 -18 -14 -49 -3 -43 4 3 8 1 8 -5 0 -6 12 -8 32 -4 24
5 29 3 23 -7 -6 -10 -4 -11 6 -4 8 5 50 9 94 9 58 1 79 4 77 13 -1 7 5 15 14
19 13 5 13 7 2 14 -11 7 -10 11 2 19 8 5 10 10 4 10 -12 0 -12 79 0 99 6 9 5
12 -1 8 -7 -4 -11 12 -12 43 0 29 4 50 10 50 5 0 7 5 4 10 -4 6 -12 7 -18 3
-9 -5 -9 -3 -1 8 6 8 10 36 8 64 -2 30 2 52 9 57 9 6 9 8 0 8 -8 0 -11 13 -9
35 1 20 -2 35 -8 35 -6 0 -2 7 8 15 11 8 16 15 10 15 -5 0 -10 20 -11 45 -2
34 1 44 10 38 9 -5 8 -2 -1 9 -7 9 -12 20 -11 24 4 26 -4 32 -46 31 -24 0 -49
-5 -55 -11z"/>
<path d="M7362 6104 c-7 -8 -10 -14 -6 -14 4 0 -6 -12 -21 -27 -15 -16 -34
-38 -42 -50 -9 -13 -19 -20 -24 -17 -5 3 -9 -4 -9 -15 0 -12 -6 -20 -12 -18
-7 1 -12 -4 -10 -12 2 -8 -3 -11 -13 -8 -8 4 -15 1 -15 -5 0 -6 -16 -25 -35
-44 -19 -18 -35 -31 -35 -29 0 2 -15 -11 -33 -28 -19 -18 -32 -35 -30 -39 2
-4 -4 -5 -13 -1 -12 4 -15 3 -10 -5 4 -7 2 -12 -3 -12 -6 0 -13 0 -16 0 -10 0
-42 -35 -38 -42 2 -5 -3 -8 -11 -8 -27 0 -17 -24 31 -75 7 -7 9 -16 5 -20 -4
-4 -1 -5 7 -3 8 2 17 -8 22 -22 4 -14 7 -19 8 -12 1 10 4 10 16 -2 8 -8 15
-19 15 -25 0 -6 9 -16 20 -23 11 -7 20 -16 20 -20 0 -4 18 -25 40 -47 22 -22
40 -44 40 -50 0 -5 9 -13 20 -16 11 -3 20 -13 20 -21 0 -8 7 -17 15 -20 8 -4
12 -10 9 -15 -3 -5 1 -9 9 -9 8 0 23 -12 33 -27 10 -16 30 -41 46 -58 15 -16
28 -33 28 -37 0 -4 9 -10 21 -13 11 -4 18 -9 15 -12 -2 -3 12 -22 32 -43 20
-21 51 -54 67 -74 17 -20 48 -56 70 -80 97 -107 125 -139 125 -147 0 -5 3 -8
8 -6 4 1 9 -2 11 -8 2 -5 12 -16 23 -23 10 -7 15 -19 12 -25 -4 -7 -4 -9 1 -5
8 8 35 -15 35 -31 0 -5 9 -13 20 -16 11 -3 20 -11 20 -16 0 -6 10 -20 23 -33
12 -13 43 -48 69 -77 25 -30 65 -74 87 -99 23 -24 41 -48 41 -53 0 -4 5 -5 10
-2 6 3 10 2 10 -3 0 -5 21 -32 48 -62 26 -29 45 -53 43 -54 -2 0 23 -29 57
-63 34 -35 59 -63 56 -63 -3 0 18 -22 46 -50 28 -27 49 -50 46 -50 -2 0 18
-22 45 -50 27 -27 47 -50 43 -50 -4 0 11 -16 32 -35 21 -19 35 -35 31 -35 -6
0 24 -30 68 -68 9 -7 12 -19 9 -25 -4 -7 -4 -9 0 -5 8 7 18 -3 91 -89 22 -26
58 -65 80 -87 22 -22 33 -36 25 -31 -9 6 -4 0 10 -13 14 -12 24 -27 22 -32 -1
-6 4 -9 10 -8 7 2 12 -3 10 -9 -1 -7 5 -13 13 -13 8 0 15 -7 15 -16 0 -8 4
-13 9 -9 5 3 12 -4 16 -15 3 -11 13 -20 21 -20 8 0 13 -4 9 -9 -3 -5 5 -17 17
-25 12 -9 19 -16 15 -16 -5 0 -2 -7 7 -15 8 -8 19 -15 25 -15 5 0 12 -8 15
-17 3 -10 26 -40 51 -68 24 -27 45 -54 45 -58 0 -5 5 -5 10 -2 6 3 10 2 10 -4
0 -6 11 -21 25 -35 14 -14 25 -27 25 -30 0 -3 24 -30 54 -61 30 -30 52 -55 49
-55 -3 0 9 -13 26 -29 17 -16 31 -34 31 -41 0 -6 5 -8 10 -5 6 3 10 1 10 -5 0
-6 18 -29 40 -52 21 -23 37 -45 34 -50 -3 -5 -1 -7 4 -6 5 2 25 -10 43 -27 19
-16 48 -31 64 -33 17 -1 39 -3 50 -5 11 -1 22 1 25 5 3 4 16 9 29 11 13 2 30
12 37 22 8 10 14 16 14 12 0 -3 20 14 44 38 24 24 47 41 50 37 3 -3 6 0 6 7 0
14 67 81 81 81 6 0 7 5 3 12 -5 8 -2 9 9 5 9 -3 16 -3 16 1 -3 18 2 33 9 29 9
-5 42 30 35 37 -4 3 -2 6 4 6 5 0 31 21 58 48 27 26 52 46 56 45 5 -2 6 4 2
13 -3 8 -2 14 3 12 5 -1 21 10 36 25 15 15 24 27 20 27 -4 0 -2 4 3 8 36 26
40 142 5 172 -11 9 -20 20 -20 23 0 10 -48 55 -53 50 -3 -2 -8 5 -12 16 -3 12
-11 19 -16 16 -5 -4 -9 1 -9 9 0 9 -6 15 -12 13 -7 -1 -12 4 -10 11 1 8 -2 11
-8 7 -5 -3 -10 -1 -10 5 0 6 -3 9 -7 7 -5 -2 -18 7 -30 20 -12 13 -20 23 -17
23 3 0 -1 7 -10 15 -8 8 -20 15 -26 15 -6 0 -8 5 -5 10 3 6 2 10 -4 10 -5 0
-37 27 -71 60 -34 33 -66 60 -71 60 -5 0 -9 7 -9 15 0 8 -4 15 -8 15 -15 0
-52 37 -45 44 3 3 -1 6 -9 6 -9 0 -19 7 -22 16 -4 9 -9 14 -13 10 -7 -7 -39
35 -35 47 1 4 -1 6 -5 6 -20 -3 -34 2 -28 11 3 6 1 10 -5 10 -6 0 -42 31 -79
69 -38 39 -71 67 -75 64 -3 -3 -9 2 -13 12 -7 19 -43 60 -43 49 0 -3 -29 24
-66 60 -36 37 -70 66 -75 66 -6 0 -7 5 -4 10 3 6 -1 10 -10 10 -9 0 -13 5 -10
10 6 9 -8 14 -28 11 -5 -1 -6 3 -2 9 3 5 1 10 -5 10 -6 0 -8 5 -5 10 3 6 -3
10 -14 10 -12 0 -20 3 -19 8 3 9 -60 72 -72 72 -5 0 -12 9 -15 20 -3 11 -10
20 -15 20 -5 0 -32 23 -59 50 -28 28 -54 50 -58 50 -4 0 -17 14 -28 30 -11 16
-24 30 -28 30 -13 0 -37 27 -30 34 4 3 1 6 -4 6 -6 0 -35 23 -64 50 -29 28
-56 50 -61 50 -4 0 -8 7 -8 16 0 8 -4 12 -10 9 -5 -3 -10 2 -10 11 0 10 -3 15
-6 11 -8 -8 -34 18 -34 34 0 7 -3 10 -6 6 -4 -3 -24 12 -44 33 -21 22 -44 40
-50 40 -6 0 -8 5 -5 10 3 6 2 10 -4 10 -5 0 -51 41 -102 90 -51 50 -97 90
-101 90 -5 0 -6 5 -3 10 3 6 2 10 -4 10 -11 0 -100 82 -257 238 -56 56 -108
102 -114 102 -5 0 -10 8 -10 17 0 9 -3 14 -6 10 -9 -9 -44 25 -37 36 3 6 1 7
-4 4 -6 -4 -21 6 -34 22 -13 16 -27 27 -31 25 -4 -3 -8 2 -8 10 0 9 -6 16 -12
16 -7 0 -24 14 -37 30 -13 17 -29 30 -37 30 -8 0 -14 4 -14 10 0 5 -20 29 -45
53 -25 25 -45 43 -45 41 0 -3 -6 1 -14 8 -8 7 -12 16 -9 21 2 4 -1 7 -7 7 -6
0 -29 18 -50 40 -21 22 -44 40 -50 40 -6 0 -8 5 -5 10 3 6 -1 10 -9 10 -8 0
-17 8 -20 18 -4 9 -23 29 -44 43 -31 23 -39 25 -50 13z"/>
</g>
</svg>
